# AST/ASF file generated using VICON BodyLanguage
# -----------------------------------------------
:version 1.10
:name VICON
:units
  mass 1.0
  length 0.45
  angle deg
:documentation
   .ast/.asf automatically generated from VICON data using
   VICON BodyBuilder and BodyLanguage model FoxedUp or BRILLIANT.MOD
:root
   order TX TY TZ RX RY RZ
   axis XYZ
   position 0 0 0  
   orientation 0 0 0 
:bonedata
  begin
     id 1 
     name lhipjoint
     direction 0.602128 -0.715006 0.355257 
     length 2.21237 
     axis 0 0 0  XYZ
  end
  begin
     id 2 
     name lfemur
     direction 0.34202 -0.939693 0  
     length 6.71649  
     axis 0 0 20  XYZ
    dof rx ry rz
    limits (-160.0 20.0)
           (-70.0 70.0)
           (-60.0 70.0)
  end
  begin
     id 3 
     name ltibia
     direction 0.34202 -0.939693 0   
     length 6.97123   
     axis 0 0 20   XYZ
    dof rx
    limits (-10.0 170.0)
  end
  begin
     id 4 
     name lfoot
     direction 0.0655697 -0.180151 0.981451   
     length 1.80924   
     axis -90 7.62852e-016 20   XYZ
    dof rx rz
    limits (-45.0 90.0)
           (-70.0 20.0)
  end
  begin
     id 5 
     name ltoes
     direction 1.53545e-011 -4.21827e-011 1   
     length 0.916331   
     axis -90 7.62852e-016 20   XYZ
    dof rx
    limits (-90.0 20.0)
  end
  begin
     id 6 
     name rhipjoint
     direction -0.625414 -0.698792 0.347201   
     length 2.2637  
     axis 0 0 0  XYZ 
  end
  begin
     id 7 
     name rfemur
     direction -0.34202 -0.939693 0   
     length 7.07595   
     axis 0 0 -20   XYZ
    dof rx ry rz
    limits (-160.0 20.0)
           (-70.0 70.0)
           (-70.0 60.0)
  end
  begin
     id 8 
     name rtibia
     direction -0.34202 -0.939693 0   
     length 7.22924   
     axis 0 0 -20   XYZ
    dof rx
    limits (-10.0 170.0)
 end
 begin
     id 9 
     name rfoot
     direction -0.0766747 -0.210662 0.974547   
     length 1.98482  
     axis -90 -7.62852e-016 -20   XYZ
    dof rx rz
    limits (-45.0 90.0)
           (-20.0 70.0)
  end
  begin
     id 10 
     name rtoes
     direction -1.53532e-011 -4.21867e-011 1   
     length 0.999842   
     axis -90 -7.62852e-016 -20   XYZ
    dof rx
    limits (-90.0 20.0)
  end
  begin
     id 11 
     name lowerback
     direction -0.0224668 0.997354 -0.0691422   
     length 2.09945   
     axis 0 0 0   XYZ
    dof rx ry rz
    limits (-20.0 45.0)
           (-30.0 30.0)
           (-30.0 30.0)
  end
  begin
     id 12 
     name upperback
     direction 0.0134698 0.998451 -0.0539888   
     length 2.09758   
     axis 0 0 0   XYZ
    dof rx ry rz
    limits (-20.0 45.0)
           (-30.0 30.0)
           (-30.0 30.0)
  end
  begin
     id 13 
     name thorax
     direction 0.0241905 0.99948 -0.0213333   
     length 2.10428   
     axis 0 0 0   XYZ
    dof rx ry rz
    limits (-20.0 45.0)
           (-30.0 30.0)
           (-30.0 30.0)
  end
  begin
     id 14 
     name lowerneck
     direction -0.00866847 0.995978 0.0891737   
     length 1.3959   
     axis 0 0 0   XYZ
    dof rx ry rz
    limits (-20.0 45.0)
           (-30.0 30.0)
           (-30.0 30.0)
  end
  begin
     id 15 
     name upperneck
     direction 0.0680679 0.992203 0.104404   
     length 1.39452   
     axis 0 0 0   XYZ
    dof rx ry rz
    limits (-20.0 45.0)
           (-30.0 30.0)
           (-30.0 30.0)
  end
  begin
     id 16
     name head
     direction 0.0242216 0.999358 0.0264054  
     length 1.40433  
     axis 0 0 0   XYZ
    dof rx ry rz
    limits (-20.0 45.0)
           (-30.0 30.0)
           (-30.0 30.0)
  end
  begin
     id 17 
     name lclavicle
     direction 0.929368 0.362991 -0.0671771  
     length 3.04887  
     axis 0 0 0   XYZ
    dof ry rz
    limits (-20.0 10.0)
           (0.0 20.0)
  end
  begin
     id 18 
     name lhumerus
     direction 1 -4.48967e-011 -7.13741e-028   
     length 4.77195   
     axis -180 -30 -90   XYZ
    dof rx ry rz
    limits (-60.0 90.0)
           (-90.0 90.0)
           (-90.0 90.0)
  end
  begin
     id 19
     name lradius
     direction 1 -4.48977e-011 3.60404e-027   
     length 2.98444   
     axis -180 -30 -90   XYZ
    dof rx
    limits (-10.0 170.0)
  end
  begin
     id 20
     name lwrist
     direction 1 -4.48997e-011 7.54877e-027   
     length 1.49222   
     axis -7.18178e-015 90 90   XYZ
    dof ry
    limits (-180.0 0.0)
 end
  begin
     id 21 
     name lhand
     direction 1 -4.489e-011 1.51105e-026   
     length 0.992285   
     axis -9.63605e-015 90 90   XYZ
    dof rx rz
    limits (-90.0 90.0)
           (-45.0 45.0)
  end
  begin
     id 22 
     name lfingers
     direction 1 -4.48998e-011 3.01948e-026   
     length 0.800006   
     axis -1.92718e-014 90 90   XYZ
    dof rx
    limits (0.0 90.0)
  end
  begin
     id 23
     name lthumb
     direction 0.707107 -6.34881e-011 0.707107   
     length 1.14865   
     axis -90 45 -3.53137e-014   XYZ
    dof rx rz
    limits (-45.0 45.0)
           (-45.0 45.0)
  end
  begin
     id 24 
     name rclavicle
     direction -0.945672 0.324529 0.0196374   
     length 3.4236  
     axis 0 0 0   XYZ 
    dof ry rz
    limits (-10.0 20.0)
           (-20.0 0.0)
  end
  begin
     id 25 
     name rhumerus
     direction -1 -4.4896e-011 1.02757e-029  
     length 4.62052   
     axis -180 30 90   XYZ
    dof rx ry rz
    limits (-90.0 60.0)
           (-90.0 90.0)
           (-90.0 90.0)
  end
  begin
     id 26 
     name rradius
     direction -1 -4.48982e-011 3.85962e-027   
     length 2.95332   
     axis -180 30 90   XYZ
    dof rx
    limits (-10.0 170.0)
  end
  begin
     id 27 
     name rwrist
     direction -1 -4.48961e-011 7.55118e-027   
     length 1.47666   
     axis -7.18178e-015 -90 -90   XYZ
    dof ry
    limits (-180.0 0.0)
  end
  begin
     id 28
     name rhand
     direction -1 -4.48984e-011 1.50994e-026   
     length 0.990956   
     axis -9.63605e-015 -90 -90   XYZ
    dof rx rz
    limits (-90.0 90.0)
           (-45.0 45.0)
  end
  begin
     id 29
     name rfingers
     direction -1 -4.4892e-011 3.02158e-026   
     length 0.798934   
     axis -1.92718e-014 -90 -90   XYZ
    dof rx
    limits (0.0 90.0)
  end
  begin
     id 30
     name rthumb
     direction -0.707107 -6.34916e-011 0.707107   
     length 1.14711   
     axis -90 -45 3.53137e-014   XYZ
    dof rx rz
    limits (-45.0 45.0)
           (-45.0 45.0)
  end
:hierarchy
  begin
    root lhipjoint rhipjoint lowerback
    lhipjoint lfemur
    lfemur ltibia
    ltibia lfoot
    lfoot ltoes
    rhipjoint rfemur
    rfemur rtibia
    rtibia rfoot
    rfoot rtoes
    lowerback upperback
    upperback thorax
    thorax lowerneck lclavicle rclavicle
    lowerneck upperneck
    upperneck head
    lclavicle lhumerus
    lhumerus lradius
    lradius lwrist
    lwrist lhand lthumb
    lhand lfingers
    rclavicle rhumerus
    rhumerus rradius
    rradius rwrist
    rwrist rhand rthumb
    rhand rfingers
  end

#!OML:ASF H:\ManfredObstacles\Project 1\Capture day 1\Session 1\Male.ASF
:FULLY-SPECIFIED
:DEGREES
17
root 16.0654 16.0262 36.7208 -171.983 -11.6389 -179.537
lowerback -8.72875 -2.90915 -3.29086
upperback 1.97302 -3.68704 2.22143
thorax 7.34719 -2.01226 3.63534
lowerneck 0.303637 -2.07717 -8.53609
upperneck -10.9965 -2.69855 9.92728
head -3.0312 -1.62242 4.51642
rclavicle -5.46161e-014 1.35174e-014
rhumerus -35.5392 -30.2684 -70.0919
rradius 22.0321
rwrist 36.7815
rhand -1.82953 -7.27703
rfingers 7.12502
rthumb 23.8369 -35.8181
lclavicle -5.46161e-014 1.35174e-014
lhumerus -26.0774 20.4239 84.1586
lradius 17.907
lwrist -33.1867
lhand -8.25725 9.87218
lfingers 7.12502
lthumb 17.6613 39.0901
rfemur -32.1063 -2.24728 17.0394
rtibia 29.0528
rfoot -6.52643 4.49217
rtoes -5.77802
lfemur 5.80851 -6.50545 -21.1168
ltibia 6.36111e-014
lfoot -10.0687 -1.05863
ltoes 0.559187
18
root 16.0623 16.0285 36.7216 -171.965 -11.6677 -179.536
lowerback -8.72967 -2.94495 -3.28044
upperback 1.94432 -3.73278 2.19077
thorax 7.31831 -2.03203 3.5902
lowerneck 0.334979 -2.05004 -8.47426
upperneck -10.8741 -2.66275 9.85134
head -3.00585 -1.59919 4.47956
rclavicle -7.0171e-014 1.25234e-014
rhumerus -35.6908 -30.1297 -70.1253
rradius 22.0297
rwrist 36.7853
rhand -1.92281 -7.35594
rfingers 7.12502
rthumb 23.7474 -35.9086
lclavicle -7.0171e-014 1.25234e-014
lhumerus -26.2152 20.7771 83.8166
lradius 17.6854
lwrist -33.4393
lhand -8.36786 10.2257
lfingers 7.12502
lthumb 17.5549 39.4531
rfemur -32.0988 -2.20565 17.0118
rtibia 29.0338
rfoot -6.48668 4.45201
rtoes -5.41979
lfemur 5.7927 -6.53219 -21.1259
ltibia 2.54444e-014
lfoot -10.0419 -1.12176
ltoes 0.408341
19
root 16.0536 16.03 36.7194 -171.928 -11.6509 -179.631
lowerback -8.78177 -2.96733 -3.29953
upperback 1.92203 -3.75174 2.11698
thorax 7.32206 -2.03884 3.51801
lowerneck 0.390095 -2.0865 -8.36755
upperneck -10.7571 -2.71528 9.73132
head -2.97938 -1.61983 4.42344
rclavicle -1.1778e-014 -8.34896e-015
rhumerus -35.822 -30.1256 -70.0884
rradius 21.9818
rwrist 36.8363
rhand -1.96197 -7.52666
rfingers 7.12502
rthumb 23.7099 -36.0842
lclavicle -1.1778e-014 -8.34896e-015
lhumerus -26.3299 21.0872 83.5106
lradius 17.463
lwrist -33.7118
lhand -8.51689 10.3129
lfingers 7.12502
lthumb 17.4114 39.553
rfemur -32.0822 -2.36362 16.9212
rtibia 28.9887
rfoot -6.61054 4.63983
rtoes -3.20793
lfemur 5.79872 -6.52253 -21.2647
ltibia 1.59028e-014
lfoot -9.82485 -1.11995
ltoes 0.990452
20
root 16.0485 16.0302 36.7229 -171.836 -11.6179 -179.648
lowerback -8.85508 -2.94336 -3.26015
upperback 1.89425 -3.71694 2.06288
thorax 7.32445 -2.01749 3.44158
lowerneck 0.366061 -2.15087 -8.28236
upperneck -10.6504 -2.80065 9.67235
head -2.93822 -1.65908 4.38942
rclavicle 3.2874e-014 1.66979e-014
rhumerus -35.8618 -30.2315 -70.0872
rradius 21.9414
rwrist 36.9087
rhand -1.99831 -7.79705
rfingers 7.12502
rthumb 23.675 -36.3591
lclavicle 3.2874e-014 1.66979e-014
lhumerus -26.3708 21.3633 83.2462
lradius 17.2643
lwrist -34.0214
lhand -8.65644 10.189
lfingers 7.12502
lthumb 17.2771 39.441
rfemur -32.1852 -2.34868 16.8843
rtibia 28.9591
rfoot -6.30382 4.65811
rtoes -4.59311
lfemur 5.68862 -6.49326 -21.2915
ltibia -2.54444e-014
lfoot -9.64936 -1.1793
ltoes 1.49202
21
root 16.0518 16.0304 36.7345 -171.664 -11.7116 -179.584
lowerback -10.1041 -3.00341 -3.67869
upperback 2.68219 -3.75287 2.3846
thorax 8.95691 -2.10735 3.94629
lowerneck -0.293849 -2.11948 -8.88453
upperneck -11.02 -2.74587 9.97114
head -2.92917 -1.63295 4.58029
rclavicle -1.88845e-015 -2.78299e-015
rhumerus -34.1377 -30.9632 -70.3087
rradius 21.5977
rwrist 37.3852
rhand -2.03147 -7.81408
rfingers 7.12502
rthumb 23.6432 -36.3803
lclavicle -1.88845e-015 -2.78299e-015
lhumerus -24.8203 22.5478 83.8643
lradius 16.8736
lwrist -34.861
lhand -8.72562 9.90238
lfingers 7.12502
lthumb 17.2105 39.1602
rfemur -32.4191 -2.1081 16.887
rtibia 28.9496
rfoot -6.50643 4.28382
rtoes -2.79831
lfemur 5.39145 -6.58976 -21.161
ltibia 4.77083e-015
lfoot -9.61271 -1.37254
ltoes 1.63426
22
root 16.054 16.0319 36.7386 -171.571 -11.8051 -179.541
lowerback -9.05681 -2.98946 -3.35864
upperback 1.83815 -3.77166 2.17749
thorax 7.40075 -2.0523 3.60201
lowerneck -0.140258 -2.04565 -8.89641
upperneck -9.90143 -2.60041 10.3574
head -2.62717 -1.5378 4.67763
rclavicle -6.85807e-015 9.93923e-016
rhumerus -35.7691 -30.6998 -69.8371
rradius 21.7254
rwrist 37.4627
rhand -1.92691 -7.71228
rfingers 7.12502
rthumb 23.7435 -36.2655
lclavicle -6.85807e-015 9.93923e-016
lhumerus -26.3411 22.0612 82.9339
lradius 16.9589
lwrist -34.7095
lhand -8.7399 9.57167
lfingers 7.12502
lthumb 17.1968 38.8307
rfemur -32.5472 -2.01468 16.9089
rtibia 28.9585
rfoot -6.50969 4.08435
rtoes -2.98427
lfemur 5.23304 -6.68243 -21.0769
ltibia 2.54444e-014
lfoot -9.58881 -1.47914
ltoes 1.90922
23
root 16.0473 16.0359 36.7316 -171.537 -11.7756 -179.591
lowerback -10.1159 -3.02626 -3.67863
upperback 2.48069 -3.77515 2.35067
thorax 8.74361 -2.10804 3.90896
lowerneck -0.350011 -2.04318 -9.12253
upperneck -10.4639 -2.60777 10.3096
head -2.75692 -1.54911 4.71005
rclavicle -4.29872e-014 1.11319e-014
rhumerus -34.6427 -31.0629 -70.0318
rradius 21.6854
rwrist 37.5842
rhand -1.74505 -7.71704
rfingers 7.12502
rthumb 23.9179 -36.2475
lclavicle -4.29872e-014 1.11319e-014
lhumerus -25.2473 22.9383 83.3461
lradius 16.7348
lwrist -35.3252
lhand -8.73607 9.48751
lfingers 7.12502
lthumb 17.2005 38.7462
rfemur -32.5777 -2.19609 16.8952
rtibia 28.9878
rfoot -6.49264 4.28629
rtoes -3.19678
lfemur 5.254 -6.65463 -21.168
ltibia -3.02153e-014
lfoot -9.61802 -1.50852
ltoes 1.99087
24
root 16.037 16.0371 36.7228 -171.482 -11.6983 -179.713
lowerback -9.9898 -2.98436 -3.49404
upperback 2.24505 -3.71794 2.10552
thorax 8.37654 -2.04973 3.56286
lowerneck -0.168887 -2.04117 -8.87269
upperneck -10.1814 -2.59752 10.3808
head -2.70551 -1.54859 4.68663
rclavicle 7.87187e-014 -1.53064e-014
rhumerus -35.388 -31.147 -69.8772
rradius 21.8308
rwrist 37.5843
rhand -1.65781 -7.62373
rfingers 7.12502
rthumb 24.0016 -36.1432
lclavicle 7.87187e-014 -1.53064e-014
lhumerus -25.7611 22.6002 82.877
lradius 16.9034
lwrist -34.9053
lhand -8.61342 9.85943
lfingers 7.12502
lthumb 17.3185 39.1078
rfemur -32.604 -2.43465 16.807
rtibia 29.0287
rfoot -6.42206 4.64703
rtoes -2.79427
lfemur 5.27963 -6.58825 -21.3462
ltibia 1.00187e-013
lfoot -9.56815 -1.70197
ltoes 2.41604
25
root 16.0327 16.0358 36.7178 -171.5 -11.6573 -179.726
lowerback -10.2402 -2.97274 -3.67381
upperback 2.35389 -3.68413 2.22231
thorax 8.6582 -2.05326 3.78312
lowerneck 0.00718355 -2.05358 -8.93087
upperneck -10.3418 -2.62746 10.27
head -2.7811 -1.56148 4.66838
rclavicle -3.67752e-015 5.56597e-015
rhumerus -35.2524 -31.2931 -69.6352
rradius 21.7596
rwrist 37.6423
rhand -1.63241 -7.37981
rfingers 7.12502
rthumb 24.0259 -35.896
lclavicle -3.67752e-015 5.56597e-015
lhumerus -25.6104 22.6616 83.1249
lradius 16.9421
lwrist -34.7243
lhand -8.59448 10.1458
lfingers 7.12502
lthumb 17.3368 39.3925
rfemur -32.5774 -2.46425 16.799
rtibia 29.0649
rfoot -6.40919 4.74664
rtoes -2.82992
lfemur 5.33732 -6.54642 -21.3763
ltibia -3.49861e-014
lfoot -9.61927 -1.99188
ltoes 2.74867
26
root 16.0339 16.0364 36.7184 -171.549 -11.6847 -179.643
lowerback -9.4514 -2.9367 -3.47908
upperback 1.83114 -3.67259 2.14862
thorax 7.61687 -2.01035 3.63923
lowerneck 0.243747 -2.05563 -8.77363
upperneck -9.84102 -2.62719 10.216
head -2.67487 -1.5484 4.61779
rclavicle 3.95581e-014 -8.94531e-015
rhumerus -36.3092 -31.0394 -69.2609
rradius 21.8804
rwrist 37.5747
rhand -1.58262 -7.20165
rfingers 7.12502
rthumb 24.0737 -35.7116
lclavicle 3.95581e-014 -8.94531e-015
lhumerus -26.5145 21.999 82.7593
lradius 17.0647
lwrist -34.184
lhand -8.70155 10.0889
lfingers 7.12502
lthumb 17.2337 39.3447
rfemur -32.56 -2.34481 16.869
rtibia 29.0909
rfoot -6.4258 4.5723
rtoes -3.65751
lfemur 5.35373 -6.56398 -21.2738
ltibia 2.38542e-014
lfoot -9.53612 -2.09708
ltoes 2.86096
